<svg id="Layer_1" data-name="Layer 1" xmlns="http://www.w3.org/2000/svg" xmlns:xlink="http://www.w3.org/1999/xlink" viewBox="0 0 200 200"><defs><style>.cls-1{fill:url(#linear-gradient);}.cls-2{fill:url(#linear-gradient-2);}</style><linearGradient id="linear-gradient" x1="44.5" y1="101" x2="156.5" y2="101" gradientUnits="userSpaceOnUse"><stop offset="0" stop-color="#7f4a00"/><stop offset="1" stop-color="#fff"/></linearGradient><linearGradient id="linear-gradient-2" x1="44" y1="100.93" x2="157" y2="100.93" gradientUnits="userSpaceOnUse"><stop offset="0" stop-color="#fff"/><stop offset="0.1" stop-color="#fbfbfb" stop-opacity="0.99"/><stop offset="0.2" stop-color="#efefef" stop-opacity="0.97"/><stop offset="0.3" stop-color="#dbdbdb" stop-opacity="0.93"/><stop offset="0.4" stop-color="#bebebe" stop-opacity="0.87"/><stop offset="0.5" stop-color="#999" stop-opacity="0.8"/><stop offset="0.6" stop-color="#6c6c6c" stop-opacity="0.71"/><stop offset="0.7" stop-color="#383838" stop-opacity="0.61"/><stop offset="0.8" stop-opacity="0.5"/></linearGradient></defs><title>Artboard 1</title><ellipse class="cls-1" cx="100.5" cy="101" rx="56" ry="76.5"/><path class="cls-2" d="M44.48,102.26c.2,27.49,10.24,59.68,36.54,73s52.69-3.62,65.06-27.28c12.8-24.49,14-57.09,4.76-83-8.89-24.85-32-49-60.65-41.67C57.63,31.57,44.7,69.85,44.48,99.74c0,.8,0,5.54,0,2.52.2-26.75,11.53-58.24,37-70.76,22.95-11.28,47.16.63,60.44,20.6,17.18,25.85,18.72,60.62,5.33,88.4-10.42,21.63-32.42,39.82-57.68,33.06-30.88-8.27-44.89-44.88-45.11-73.82C44.5,96.69,44.47,101.49,44.48,102.26Z"/></svg>